<svg xmlns="http://www.w3.org/2000/svg" width="192" height="192" viewBox="0 0 1000 1000">
<defs><style>.cls-1{fill:#232323;}.cls-2{fill:#668656;fill-rule:evenodd;}</style></defs>
<rect class="cls-1" width="1000" height="1000"/>
<path id="S" class="cls-2" d="M331.118,393.891c1.2-27.6,134.4-139.2,444-150l2.4,2.4c-64.8,44.4-87.6,81.6-87.6,84,0,12,7.2,18,19.2,18,9.6,0,21.6-7.2,30-12,46.8-33.6,56.4-39.6,108-58.8,70.8-27.6,100.8-48,100.8-136.8,0-24-3.6-33.6-31.2-39.6-50.4-10.8-100.8-16.8-151.2-16.8-262.8,0-480,114-517.2,175.2-19.2,32.4-38.4,120-38.4,159.6,0,72,62.4,91.2,122.4,100.8,57.6,9.6,390,57.6,390,118.8,0,19.2-117.6,142.8-546,127.2v-2.4c7.2-7.2,13.2-13.2,20.4-18,8.4-4.8,20.4-10.8,20.4-22.8,0-7.2-3.6-8.4-9.6-8.4-18,0-88.8,22.8-103.2,34.8-19.2,18-61.2,81.6-61.2,106.8,0,69.6,146.4,69.6,193.2,69.6,172.8,0,591.6-38.4,591.6-277.2,0-58.8-56.4-122.4-177.6-151.2C315.518,419.09,331.118,410.69,331.118,393.891ZM0,0H1000V1000H0V0Z"/>
</svg>
